<svg xmlns="http://www.w3.org/2000/svg" width="512" height="512" viewBox="0 0 512 512">
  <defs>
    <linearGradient id="bg" x1="0" y1="0" x2="1" y2="1">
      <stop offset="0%" stop-color="#12090b"/>
      <stop offset="100%" stop-color="#5c131a"/>
    </linearGradient>
    <linearGradient id="accent" x1="0" y1="0" x2="1" y2="1">
      <stop offset="0%" stop-color="#f8d7a4"/>
      <stop offset="100%" stop-color="#f4a261"/>
    </linearGradient>
  </defs>
  <rect width="512" height="512" rx="112" fill="url(#bg)"/>
  <circle cx="256" cy="256" r="176" fill="#2b0f14" stroke="#8f2834" stroke-width="16"/>
  <path d="M326 176c-20-24-46-36-80-36c-58 0-98 40-98 116c0 74 40 116 98 116c34 0 60-12 80-36" fill="none" stroke="url(#accent)" stroke-linecap="round" stroke-width="34"/>
  <path d="M258 160h38c42 0 68 18 68 52c0 22-11 37-31 45c27 7 41 24 41 50c0 38-28 61-76 61h-40" fill="none" stroke="#f7efe5" stroke-linecap="round" stroke-linejoin="round" stroke-width="30"/>
</svg>